<svg width="641.5436767578125px" height="124.39999999999999px" xmlns="http://www.w3.org/2000/svg" viewBox="-70.77183837890624 12.800000000000004 641.5436767578125 124.39999999999999" style="background: rgba(0, 0, 0, 0);" preserveAspectRatio="xMidYMid"><defs><filter id="editing-extrusion" x="-100%" y="-100%" width="300%" height="300%"><feFlood result="color1" flood-color="#ffffff"></feFlood><feConvolveMatrix order="8,8" divisor="1" kernelMatrix="1 0 0 0 0 0 0 0 0 1 0 0 0 0 0 0 0 0 1 0 0 0 0 0 0 0 0 1 0 0 0 0 0 0 0 0 1 0 0 0 0 0 0 0 0 1 0 0 0 0 0 0 0 0 1 0 0 0 0 0 0 0 0 1" in="SourceAlpha" result="extrude"></feConvolveMatrix><feComposite in="color1" in2="extrude" result="comp-extrude" operator="in"></feComposite><feOffset dx="4" dy="4" in="comp-extrude" result="offset-extrude"></feOffset><feMerge><feMergeNode in="offset-extrude"></feMergeNode><feMergeNode in="SourceGraphic"></feMergeNode></feMerge></filter></defs><g filter="url(#editing-extrusion)"><g transform="translate(21.49997901916504, 97.40500450134277)"><path d="M5.75-6.41L5.75-38.41L5.75-38.41Q5.75-39.72 6.25-40.89L6.25-40.89L6.25-40.89Q6.75-42.06 7.63-42.92L7.63-42.92L7.63-42.92Q8.50-43.78 9.67-44.30L9.67-44.30L9.67-44.30Q10.84-44.81 12.16-44.81L12.16-44.81L36.47-44.81L36.47-44.81Q37.78-44.81 38.95-44.30L38.95-44.30L38.95-44.30Q40.13-43.78 41-42.92L41-42.92L41-42.92Q41.88-42.06 42.38-40.89L42.38-40.89L42.38-40.89Q42.88-39.72 42.88-38.41L42.88-38.41L42.88-32.63L36.47-32.63L36.47-38.41L12.16-38.41L12.16-6.41L36.47-6.41L36.47-12.16L42.88-12.16L42.88-6.41L42.88-6.41Q42.88-5.09 42.38-3.92L42.38-3.92L42.38-3.92Q41.88-2.75 41-1.88L41-1.88L41-1.88Q40.13-1 38.95-0.50L38.95-0.50L38.95-0.50Q37.78 0 36.47 0L36.47 0L12.16 0L12.16 0Q10.84 0 9.67-0.50L9.67-0.50L9.67-0.50Q8.50-1 7.63-1.88L7.63-1.88L7.63-1.88Q6.75-2.75 6.25-3.92L6.25-3.92L6.25-3.92Q5.75-5.09 5.75-6.41L5.75-6.41ZM66.56-44.81L72.97-44.81L90.25 0L83.84 0L79.88-10.31L59.66-10.31L55.69 0L49.28 0L66.56-44.81ZM69.78-36.47L62.09-16.72L77.41-16.72L69.78-36.47ZM97.94-44.81L104.34-44.81L104.34 0L97.94 0L97.94-44.81ZM154.25-38.41L154.25-6.41L154.25-6.41Q154.25-5.09 153.75-3.92L153.75-3.92L153.75-3.92Q153.25-2.75 152.38-1.88L152.38-1.88L152.38-1.88Q151.50-1 150.33-0.50L150.33-0.50L150.33-0.50Q149.16 0 147.84 0L147.84 0L122.25 0L122.25 0Q120.94 0 119.77-0.50L119.77-0.50L119.77-0.50Q118.59-1 117.72-1.88L117.72-1.88L117.72-1.88Q116.84-2.75 116.34-3.92L116.34-3.92L116.34-3.92Q115.84-5.09 115.84-6.41L115.84-6.41L115.84-38.41L115.84-38.41Q115.84-39.72 116.34-40.89L116.34-40.89L116.34-40.89Q116.84-42.06 117.72-42.92L117.72-42.92L117.72-42.92Q118.59-43.78 119.77-44.30L119.77-44.30L119.77-44.30Q120.94-44.81 122.25-44.81L122.25-44.81L147.84-44.81L147.84-44.81Q149.16-44.81 150.33-44.30L150.33-44.30L150.33-44.30Q151.50-43.78 152.38-42.92L152.38-42.92L152.38-42.92Q153.25-42.06 153.75-40.89L153.75-40.89L153.75-40.89Q154.25-39.72 154.25-38.41L154.25-38.41ZM147.84-38.41L122.25-38.41L122.25-6.41L147.84-6.41L147.84-38.41ZM213.09-19.19L191.34-19.19L191.34-19.19Q190.03-19.19 188.86-19.70L188.86-19.70L188.86-19.70Q187.69-20.22 186.81-21.08L186.81-21.08L186.81-21.08Q185.94-21.94 185.44-23.11L185.44-23.11L185.44-23.11Q184.94-24.28 184.94-25.59L184.94-25.59L184.94-38.41L184.94-38.41Q184.94-39.72 185.44-40.89L185.44-40.89L185.44-40.89Q185.94-42.06 186.81-42.92L186.81-42.92L186.81-42.92Q187.69-43.78 188.86-44.30L188.86-44.30L188.86-44.30Q190.03-44.81 191.34-44.81L191.34-44.81L213.09-44.81L213.09-44.81Q214.41-44.81 215.58-44.30L215.58-44.30L215.58-44.30Q216.75-43.78 217.63-42.92L217.63-42.92L217.63-42.92Q218.50-42.06 219-40.89L219-40.89L219-40.89Q219.50-39.72 219.50-38.41L219.50-38.41L219.50-32.63L213.09-32.63L213.09-38.41L191.34-38.41L191.34-25.59L213.09-25.59L213.09-25.59Q214.41-25.59 215.58-25.09L215.58-25.09L215.58-25.09Q216.75-24.59 217.63-23.72L217.63-23.72L217.63-23.72Q218.50-22.84 219-21.67L219-21.67L219-21.67Q219.50-20.50 219.50-19.19L219.50-19.19L219.50-6.41L219.50-6.41Q219.50-5.09 219-3.92L219-3.92L219-3.92Q218.50-2.75 217.63-1.88L217.63-1.88L217.63-1.88Q216.75-1 215.58-0.50L215.58-0.50L215.58-0.50Q214.41 0 213.09 0L213.09 0L190.72 0L190.72 0Q189.41 0 188.23-0.50L188.23-0.50L188.23-0.50Q187.06-1 186.19-1.88L186.19-1.88L186.19-1.88Q185.31-2.75 184.81-3.92L184.81-3.92L184.81-3.92Q184.31-5.09 184.31-6.41L184.31-6.41L184.31-12.16L190.72-12.16L190.72-6.41L213.09-6.41L213.09-19.19ZM244.47-44.81L250.88-44.81L268.16 0L261.75 0L257.78-10.31L237.56-10.31L233.59 0L227.19 0L244.47-44.81ZM247.69-36.47L240-16.72L255.31-16.72L247.69-36.47ZM282.25-34.75L282.25 0L275.84 0L275.84-44.81L282.25-44.81L309.19-10.06L309.19-44.81L315.59-44.81L315.59 0L309.19 0L282.25-34.75ZM323.25-38.41L323.25-44.81L359.09-44.81L359.09-38.41L344.38-38.41L344.38 0L337.97 0L337.97-38.41L323.25-38.41ZM405.19-38.41L405.19-6.41L405.19-6.41Q405.19-5.09 404.69-3.92L404.69-3.92L404.69-3.92Q404.19-2.75 403.31-1.88L403.31-1.88L403.31-1.88Q402.44-1 401.27-0.50L401.27-0.50L401.27-0.50Q400.09 0 398.78 0L398.78 0L373.19 0L373.19 0Q371.88 0 370.70-0.50L370.70-0.50L370.70-0.50Q369.53-1 368.66-1.88L368.66-1.88L368.66-1.88Q367.78-2.75 367.28-3.92L367.28-3.92L367.28-3.92Q366.78-5.09 366.78-6.41L366.78-6.41L366.78-38.41L366.78-38.41Q366.78-39.72 367.28-40.89L367.28-40.89L367.28-40.89Q367.78-42.06 368.66-42.92L368.66-42.92L368.66-42.92Q369.53-43.78 370.70-44.30L370.70-44.30L370.70-44.30Q371.88-44.81 373.19-44.81L373.19-44.81L398.78-44.81L398.78-44.81Q400.09-44.81 401.27-44.30L401.27-44.30L401.27-44.30Q402.44-43.78 403.31-42.92L403.31-42.92L403.31-42.92Q404.19-42.06 404.69-40.89L404.69-40.89L404.69-40.89Q405.19-39.72 405.19-38.41L405.19-38.41ZM398.78-38.41L373.19-38.41L373.19-6.41L398.78-6.41L398.78-38.41ZM444.84-19.19L423.09-19.19L423.09-19.19Q421.78-19.19 420.61-19.70L420.61-19.70L420.61-19.70Q419.44-20.22 418.56-21.08L418.56-21.08L418.56-21.08Q417.69-21.94 417.19-23.11L417.19-23.11L417.19-23.11Q416.69-24.28 416.69-25.59L416.69-25.59L416.69-38.41L416.69-38.41Q416.69-39.72 417.19-40.89L417.19-40.89L417.19-40.89Q417.69-42.06 418.56-42.92L418.56-42.92L418.56-42.92Q419.44-43.78 420.61-44.30L420.61-44.30L420.61-44.30Q421.78-44.81 423.09-44.81L423.09-44.81L444.84-44.81L444.84-44.81Q446.16-44.81 447.33-44.30L447.33-44.30L447.33-44.30Q448.50-43.78 449.38-42.92L449.38-42.92L449.38-42.92Q450.25-42.06 450.75-40.89L450.75-40.89L450.75-40.89Q451.25-39.72 451.25-38.41L451.25-38.41L451.25-32.63L444.84-32.63L444.84-38.41L423.09-38.41L423.09-25.59L444.84-25.59L444.84-25.59Q446.16-25.59 447.33-25.09L447.33-25.09L447.33-25.09Q448.50-24.59 449.38-23.72L449.38-23.72L449.38-23.72Q450.25-22.84 450.75-21.67L450.75-21.67L450.75-21.67Q451.25-20.50 451.25-19.19L451.25-19.19L451.25-6.41L451.25-6.41Q451.25-5.09 450.75-3.92L450.75-3.92L450.75-3.92Q450.25-2.75 449.38-1.88L449.38-1.88L449.38-1.88Q448.50-1 447.33-0.50L447.33-0.50L447.33-0.50Q446.16 0 444.84 0L444.84 0L422.47 0L422.47 0Q421.16 0 419.98-0.50L419.98-0.50L419.98-0.50Q418.81-1 417.94-1.88L417.94-1.88L417.94-1.88Q417.06-2.75 416.56-3.92L416.56-3.92L416.56-3.92Q416.06-5.09 416.06-6.41L416.06-6.41L416.06-12.16L422.47-12.16L422.47-6.41L444.84-6.41L444.84-19.19Z" fill="#0563bb"></path></g></g><style>text {
  font-size: 64px;
  font-family: Arial Black;
  dominant-baseline: central;
  text-anchor: middle;
}</style></svg>